<?xml version="1.0" encoding="UTF-8" standalone="no"?>
<svg xmlns="http://www.w3.org/2000/svg"
     width="1000.0"
     height="1000.0"
     viewBox="0 0 1000.0 1000.0" >
<path style="fill:none;stroke:#000000;stroke-width:1px" id="4" d="m 884.8704981847798,630.5321078765703 -97.81476007338055,20.791169081775987 74.3144825477394,-66.91306063588584 -30.901699437494724,95.10565162951536 -20.791169081775944,-97.81476007338055 66.91306063588584,74.3144825477394 -95.10565162951535,-30.901699437494738 97.81476007338057,-20.79116908177593 -74.31448254773943,66.91306063588581 30.901699437494734,-95.10565162951536 20.79116908177598,97.81476007338055 -66.91306063588583,-74.31448254773942 95.10565162951535,30.901699437494774 -97.81476007338055,20.791169081775987 74.3144825477394,-66.91306063588584 -30.901699437494724,95.10565162951536 -20.791169081775944,-97.81476007338055 66.91306063588584,74.3144825477394 -95.10565162951535,-30.901699437494738 97.81476007338057,-20.79116908177593 -74.31448254773943,66.91306063588581 30.901699437494734,-95.10565162951536 20.79116908177598,97.81476007338055 -66.91306063588583,-74.31448254773942 95.10565162951535,30.901699437494774 z" />
<path style="fill:none;stroke:#000000;stroke-width:1px" id="3" d="m 738.148358074709,661.7188614992343 -4.635919272833936,1.8730329670795618 -4.240240480782127,2.6495963211660287 -3.715724127386971,3.3456530317942907 -3.0783073766282927,3.940053768033609 -2.347357813929452,4.414737964294636 -1.5450849718747361,4.755282581475768 -0.6958655048003273,4.951340343707852 0.17449748351250824,4.9969541350954785 1.039558454088799,4.890738003669028 1.8730329670795616,4.635919272833936 2.649596321166025,4.24024048078213 3.345653031794292,3.71572412738697 3.940053768033611,3.078307376628289 4.414737964294634,2.347357813929454 4.755282581475767,1.5450849718747386 4.951340343707852,0.6958655048003276 4.9969541350954785,-0.1744974835125035 4.8907380036690284,-1.0395584540887965 4.635919272833936,-1.8730329670795611 4.24024048078213,-2.6495963211660243 3.71572412738697,-3.3456530317942916 3.0783073766282913,-3.94005376803361 2.3473578139294524,-4.414737964294636 1.5450849718747368,-4.755282581475768 0.6958655048003268,-4.951340343707852 -0.1744974835125054,-4.9969541350954785 -1.0395584540887972,-4.890738003669028 -1.8730329670795598,-4.635919272833937 -2.6495963211660243,-4.24024048078213 -3.345653031794291,-3.7157241273869706 -3.94005376803361,-3.078307376628291 -4.414737964294635,-2.347357813929454 -4.755282581475767,-1.545084971874737 -4.951340343707852,-0.6958655048003272 -4.9969541350954785,0.1744974835125041 -4.890738003669028,1.0395584540887994 -4.635919272833936,1.8730329670795618 -4.240240480782127,2.6495963211660287 -3.715724127386971,3.3456530317942907 -3.0783073766282927,3.940053768033609 -2.347357813929452,4.414737964294636 -1.5450849718747361,4.755282581475768 -0.6958655048003273,4.951340343707852 0.17449748351250824,4.9969541350954785 1.039558454088799,4.890738003669028 1.8730329670795616,4.635919272833936 2.649596321166025,4.24024048078213 3.345653031794292,3.71572412738697 3.940053768033611,3.078307376628289 4.414737964294634,2.347357813929454 4.755282581475767,1.5450849718747386 4.951340343707852,0.6958655048003276 4.9969541350954785,-0.1744974835125035 4.8907380036690284,-1.0395584540887965 4.635919272833936,-1.8730329670795611 4.24024048078213,-2.6495963211660243 3.71572412738697,-3.3456530317942916 3.0783073766282913,-3.94005376803361 2.3473578139294524,-4.414737964294636 1.5450849718747368,-4.755282581475768 0.6958655048003268,-4.951340343707852 -0.1744974835125054,-4.9969541350954785 -1.0395584540887972,-4.890738003669028 -1.8730329670795598,-4.635919272833937 -2.6495963211660243,-4.24024048078213 -3.345653031794291,-3.7157241273869706 -3.94005376803361,-3.078307376628291 -4.414737964294635,-2.347357813929454 -4.755282581475767,-1.545084971874737 -4.951340343707852,-0.6958655048003272 -4.9969541350954785,0.1744974835125041 -4.890738003669028,1.0395584540887994 -4.635919272833936,1.8730329670795618 -4.240240480782127,2.6495963211660287 -3.715724127386971,3.3456530317942907 -3.0783073766282927,3.940053768033609 -2.347357813929452,4.414737964294636 -1.5450849718747361,4.755282581475768 -0.6958655048003273,4.951340343707852 0.17449748351250824,4.9969541350954785 1.039558454088799,4.890738003669028 1.8730329670795616,4.635919272833936 2.649596321166025,4.24024048078213 3.345653031794292,3.71572412738697 3.940053768033611,3.078307376628289 4.414737964294634,2.347357813929454 4.755282581475767,1.5450849718747386 4.951340343707852,0.6958655048003276 4.9969541350954785,-0.1744974835125035 4.8907380036690284,-1.0395584540887965 4.635919272833936,-1.8730329670795611 4.24024048078213,-2.6495963211660243 3.71572412738697,-3.3456530317942916 3.0783073766282913,-3.94005376803361 2.3473578139294524,-4.414737964294636 1.5450849718747368,-4.755282581475768 0.6958655048003268,-4.951340343707852 -0.1744974835125054,-4.9969541350954785 -1.0395584540887972,-4.890738003669028 -1.8730329670795598,-4.635919272833937 -2.6495963211660243,-4.24024048078213 -3.345653031794291,-3.7157241273869706 -3.94005376803361,-3.078307376628291 -4.414737964294635,-2.347357813929454 -4.755282581475767,-1.545084971874737 -4.951340343707852,-0.6958655048003272 -4.9969541350954785,0.1744974835125041 -4.890738003669028,1.0395584540887994 -4.635919272833936,1.8730329670795618 -4.240240480782127,2.6495963211660287 -3.715724127386971,3.3456530317942907 -3.0783073766282927,3.940053768033609 -2.347357813929452,4.414737964294636 -1.5450849718747361,4.755282581475768 -0.6958655048003273,4.951340343707852 0.17449748351250824,4.9969541350954785 1.039558454088799,4.890738003669028 1.8730329670795616,4.635919272833936 2.649596321166025,4.24024048078213 3.345653031794292,3.71572412738697 3.940053768033611,3.078307376628289 4.414737964294634,2.347357813929454 4.755282581475767,1.5450849718747386 4.951340343707852,0.6958655048003276 4.9969541350954785,-0.1744974835125035 4.8907380036690284,-1.0395584540887965 4.635919272833936,-1.8730329670795611 4.24024048078213,-2.6495963211660243 3.71572412738697,-3.3456530317942916 3.0783073766282913,-3.94005376803361 2.3473578139294524,-4.414737964294636 1.5450849718747368,-4.755282581475768 0.6958655048003268,-4.951340343707852 -0.1744974835125054,-4.9969541350954785 -1.0395584540887972,-4.890738003669028 -1.8730329670795598,-4.635919272833937 -2.6495963211660243,-4.24024048078213 -3.345653031794291,-3.7157241273869706 -3.94005376803361,-3.078307376628291 -4.414737964294635,-2.347357813929454 -4.755282581475767,-1.545084971874737 -4.951340343707852,-0.6958655048003272 -4.9969541350954785,0.1744974835125041 -4.890738003669028,1.0395584540887994 z" />
<path style="fill:none;stroke:#000000;stroke-width:1px" id="2" d="m 346.8893177811841,744.8835378263383 37.1572412738697,-33.45653031794292 2.616797812147181,-49.931476737728694 -33.456530317942914,-37.15724127386971 -49.931476737728694,-2.6167978121471913 -37.157241273869715,33.45653031794291 -2.616797812147197,49.931476737728694 33.45653031794292,37.1572412738697 49.931476737728694,2.616797812147178 -15.450849718747362,47.55282581475768 22.699524986977345,44.55032620941839 47.552825814757675,15.450849718747387 44.55032620941839,-22.699524986977345 15.450849718747367,-47.55282581475768 -22.69952498697734,-44.55032620941839 -47.552825814757675,-15.450849718747369 -44.55032620941839,22.699524986977348 -10.395584540887972,-48.90738003669028 -41.9335283972712,-27.231951750751353 -48.90738003669028,10.395584540887993 -27.231951750751332,41.93352839727121 10.39558454088799,48.90738003669028 41.9335283972712,27.231951750751353 48.907380036690284,-10.395584540887965 27.231951750751353,-41.933528397271196 33.45653031794292,37.1572412738697 49.931476737728694,2.616797812147178 37.1572412738697,-33.45653031794292 2.616797812147181,-49.931476737728694 -33.456530317942914,-37.15724127386971 -49.931476737728694,-2.6167978121471913 -37.157241273869715,33.45653031794291 -2.616797812147197,49.931476737728694 -47.552825814757675,-15.450849718747369 -44.55032620941839,22.699524986977348 -15.450849718747362,47.55282581475768 22.699524986977345,44.55032620941839 47.552825814757675,15.450849718747387 44.55032620941839,-22.699524986977345 15.450849718747367,-47.55282581475768 -22.69952498697734,-44.55032620941839 48.907380036690284,-10.395584540887965 27.231951750751353,-41.933528397271196 -10.395584540887972,-48.90738003669028 -41.9335283972712,-27.231951750751353 -48.90738003669028,10.395584540887993 -27.231951750751332,41.93352839727121 10.39558454088799,48.90738003669028 41.9335283972712,27.231951750751353 -37.157241273869715,33.45653031794291 -2.616797812147197,49.931476737728694 33.45653031794292,37.1572412738697 49.931476737728694,2.616797812147178 37.1572412738697,-33.45653031794292 2.616797812147181,-49.931476737728694 -33.456530317942914,-37.15724127386971 -49.931476737728694,-2.6167978121471913 15.450849718747367,-47.55282581475768 -22.69952498697734,-44.55032620941839 -47.552825814757675,-15.450849718747369 -44.55032620941839,22.699524986977348 -15.450849718747362,47.55282581475768 22.699524986977345,44.55032620941839 47.552825814757675,15.450849718747387 44.55032620941839,-22.699524986977345 10.39558454088799,48.90738003669028 41.9335283972712,27.231951750751353 48.907380036690284,-10.395584540887965 27.231951750751353,-41.933528397271196 -10.395584540887972,-48.90738003669028 -41.9335283972712,-27.231951750751353 -48.90738003669028,10.395584540887993 -27.231951750751332,41.93352839727121 -33.456530317942914,-37.15724127386971 -49.931476737728694,-2.6167978121471913 -37.157241273869715,33.45653031794291 -2.616797812147197,49.931476737728694 33.45653031794292,37.1572412738697 49.931476737728694,2.616797812147178 37.1572412738697,-33.45653031794292 2.616797812147181,-49.931476737728694 47.552825814757675,15.450849718747387 44.55032620941839,-22.699524986977345 15.450849718747367,-47.55282581475768 -22.69952498697734,-44.55032620941839 -47.552825814757675,-15.450849718747369 -44.55032620941839,22.699524986977348 -15.450849718747362,47.55282581475768 22.699524986977345,44.55032620941839 -48.90738003669028,10.395584540887993 -27.231951750751332,41.93352839727121 10.39558454088799,48.90738003669028 41.9335283972712,27.231951750751353 48.907380036690284,-10.395584540887965 27.231951750751353,-41.933528397271196 -10.395584540887972,-48.90738003669028 -41.9335283972712,-27.231951750751353 37.1572412738697,-33.45653031794292 2.616797812147181,-49.931476737728694 -33.456530317942914,-37.15724127386971 -49.931476737728694,-2.6167978121471913 -37.157241273869715,33.45653031794291 -2.616797812147197,49.931476737728694 33.45653031794292,37.1572412738697 49.931476737728694,2.616797812147178 -15.450849718747362,47.55282581475768 22.699524986977345,44.55032620941839 47.552825814757675,15.450849718747387 44.55032620941839,-22.699524986977345 15.450849718747367,-47.55282581475768 -22.69952498697734,-44.55032620941839 -47.552825814757675,-15.450849718747369 -44.55032620941839,22.699524986977348 -10.395584540887972,-48.90738003669028 -41.9335283972712,-27.231951750751353 -48.90738003669028,10.395584540887993 -27.231951750751332,41.93352839727121 10.39558454088799,48.90738003669028 41.9335283972712,27.231951750751353 48.907380036690284,-10.395584540887965 27.231951750751353,-41.933528397271196 33.45653031794292,37.1572412738697 49.931476737728694,2.616797812147178 37.1572412738697,-33.45653031794292 2.616797812147181,-49.931476737728694 -33.456530317942914,-37.15724127386971 -49.931476737728694,-2.6167978121471913 -37.157241273869715,33.45653031794291 -2.616797812147197,49.931476737728694 -47.552825814757675,-15.450849718747369 -44.55032620941839,22.699524986977348 -15.450849718747362,47.55282581475768 22.699524986977345,44.55032620941839 47.552825814757675,15.450849718747387 44.55032620941839,-22.699524986977345 15.450849718747367,-47.55282581475768 -22.69952498697734,-44.55032620941839 48.907380036690284,-10.395584540887965 27.231951750751353,-41.933528397271196 -10.395584540887972,-48.90738003669028 -41.9335283972712,-27.231951750751353 -48.90738003669028,10.395584540887993 -27.231951750751332,41.93352839727121 10.39558454088799,48.90738003669028 41.9335283972712,27.231951750751353 -37.157241273869715,33.45653031794291 -2.616797812147197,49.931476737728694 33.45653031794292,37.1572412738697 49.931476737728694,2.616797812147178 37.1572412738697,-33.45653031794292 2.616797812147181,-49.931476737728694 -33.456530317942914,-37.15724127386971 -49.931476737728694,-2.6167978121471913 15.450849718747367,-47.55282581475768 -22.69952498697734,-44.55032620941839 -47.552825814757675,-15.450849718747369 -44.55032620941839,22.699524986977348 -15.450849718747362,47.55282581475768 22.699524986977345,44.55032620941839 47.552825814757675,15.450849718747387 44.55032620941839,-22.699524986977345 10.39558454088799,48.90738003669028 41.9335283972712,27.231951750751353 48.907380036690284,-10.395584540887965 27.231951750751353,-41.933528397271196 -10.395584540887972,-48.90738003669028 -41.9335283972712,-27.231951750751353 -48.90738003669028,10.395584540887993 -27.231951750751332,41.93352839727121 -33.456530317942914,-37.15724127386971 -49.931476737728694,-2.6167978121471913 -37.157241273869715,33.45653031794291 -2.616797812147197,49.931476737728694 33.45653031794292,37.1572412738697 49.931476737728694,2.616797812147178 37.1572412738697,-33.45653031794292 2.616797812147181,-49.931476737728694 47.552825814757675,15.450849718747387 44.55032620941839,-22.699524986977345 15.450849718747367,-47.55282581475768 -22.69952498697734,-44.55032620941839 -47.552825814757675,-15.450849718747369 -44.55032620941839,22.699524986977348 -15.450849718747362,47.55282581475768 22.699524986977345,44.55032620941839 -48.90738003669028,10.395584540887993 -27.231951750751332,41.93352839727121 10.39558454088799,48.90738003669028 41.9335283972712,27.231951750751353 48.907380036690284,-10.395584540887965 27.231951750751353,-41.933528397271196 -10.395584540887972,-48.90738003669028 -41.9335283972712,-27.231951750751353 37.1572412738697,-33.45653031794292 2.616797812147181,-49.931476737728694 -33.456530317942914,-37.15724127386971 -49.931476737728694,-2.6167978121471913 -37.157241273869715,33.45653031794291 -2.616797812147197,49.931476737728694 33.45653031794292,37.1572412738697 49.931476737728694,2.616797812147178 -15.450849718747362,47.55282581475768 22.699524986977345,44.55032620941839 47.552825814757675,15.450849718747387 44.55032620941839,-22.699524986977345 15.450849718747367,-47.55282581475768 -22.69952498697734,-44.55032620941839 -47.552825814757675,-15.450849718747369 -44.55032620941839,22.699524986977348 -10.395584540887972,-48.90738003669028 -41.9335283972712,-27.231951750751353 -48.90738003669028,10.395584540887993 -27.231951750751332,41.93352839727121 10.39558454088799,48.90738003669028 41.9335283972712,27.231951750751353 48.907380036690284,-10.395584540887965 27.231951750751353,-41.933528397271196 33.45653031794292,37.1572412738697 49.931476737728694,2.616797812147178 37.1572412738697,-33.45653031794292 2.616797812147181,-49.931476737728694 -33.456530317942914,-37.15724127386971 -49.931476737728694,-2.6167978121471913 -37.157241273869715,33.45653031794291 -2.616797812147197,49.931476737728694 -47.552825814757675,-15.450849718747369 -44.55032620941839,22.699524986977348 -15.450849718747362,47.55282581475768 22.699524986977345,44.55032620941839 47.552825814757675,15.450849718747387 44.55032620941839,-22.699524986977345 15.450849718747367,-47.55282581475768 -22.69952498697734,-44.55032620941839 48.907380036690284,-10.395584540887965 27.231951750751353,-41.933528397271196 -10.395584540887972,-48.90738003669028 -41.9335283972712,-27.231951750751353 -48.90738003669028,10.395584540887993 -27.231951750751332,41.93352839727121 10.39558454088799,48.90738003669028 41.9335283972712,27.231951750751353 -37.157241273869715,33.45653031794291 -2.616797812147197,49.931476737728694 33.45653031794292,37.1572412738697 49.931476737728694,2.616797812147178 37.1572412738697,-33.45653031794292 2.616797812147181,-49.931476737728694 -33.456530317942914,-37.15724127386971 -49.931476737728694,-2.6167978121471913 15.450849718747367,-47.55282581475768 -22.69952498697734,-44.55032620941839 -47.552825814757675,-15.450849718747369 -44.55032620941839,22.699524986977348 -15.450849718747362,47.55282581475768 22.699524986977345,44.55032620941839 47.552825814757675,15.450849718747387 44.55032620941839,-22.699524986977345 10.39558454088799,48.90738003669028 41.9335283972712,27.231951750751353 48.907380036690284,-10.395584540887965 27.231951750751353,-41.933528397271196 -10.395584540887972,-48.90738003669028 -41.9335283972712,-27.231951750751353 -48.90738003669028,10.395584540887993 -27.231951750751332,41.93352839727121 -33.456530317942914,-37.15724127386971 -49.931476737728694,-2.6167978121471913 -37.157241273869715,33.45653031794291 -2.616797812147197,49.931476737728694 33.45653031794292,37.1572412738697 49.931476737728694,2.616797812147178 37.1572412738697,-33.45653031794292 2.616797812147181,-49.931476737728694 47.552825814757675,15.450849718747387 44.55032620941839,-22.699524986977345 15.450849718747367,-47.55282581475768 -22.69952498697734,-44.55032620941839 -47.552825814757675,-15.450849718747369 -44.55032620941839,22.699524986977348 -15.450849718747362,47.55282581475768 22.699524986977345,44.55032620941839 -48.90738003669028,10.395584540887993 -27.231951750751332,41.93352839727121 10.39558454088799,48.90738003669028 41.9335283972712,27.231951750751353 48.907380036690284,-10.395584540887965 27.231951750751353,-41.933528397271196 -10.395584540887972,-48.90738003669028 -41.9335283972712,-27.231951750751353 37.1572412738697,-33.45653031794292 2.616797812147181,-49.931476737728694 -33.456530317942914,-37.15724127386971 -49.931476737728694,-2.6167978121471913 -37.157241273869715,33.45653031794291 -2.616797812147197,49.931476737728694 33.45653031794292,37.1572412738697 49.931476737728694,2.616797812147178 -15.450849718747362,47.55282581475768 22.699524986977345,44.55032620941839 47.552825814757675,15.450849718747387 44.55032620941839,-22.699524986977345 15.450849718747367,-47.55282581475768 -22.69952498697734,-44.55032620941839 -47.552825814757675,-15.450849718747369 -44.55032620941839,22.699524986977348 -10.395584540887972,-48.90738003669028 -41.9335283972712,-27.231951750751353 -48.90738003669028,10.395584540887993 -27.231951750751332,41.93352839727121 10.39558454088799,48.90738003669028 41.9335283972712,27.231951750751353 48.907380036690284,-10.395584540887965 27.231951750751353,-41.933528397271196 33.45653031794292,37.1572412738697 49.931476737728694,2.616797812147178 37.1572412738697,-33.45653031794292 2.616797812147181,-49.931476737728694 -33.456530317942914,-37.15724127386971 -49.931476737728694,-2.6167978121471913 -37.157241273869715,33.45653031794291 -2.616797812147197,49.931476737728694 -47.552825814757675,-15.450849718747369 -44.55032620941839,22.699524986977348 -15.450849718747362,47.55282581475768 22.699524986977345,44.55032620941839 47.552825814757675,15.450849718747387 44.55032620941839,-22.699524986977345 15.450849718747367,-47.55282581475768 -22.69952498697734,-44.55032620941839 48.907380036690284,-10.395584540887965 27.231951750751353,-41.933528397271196 -10.395584540887972,-48.90738003669028 -41.9335283972712,-27.231951750751353 -48.90738003669028,10.395584540887993 -27.231951750751332,41.93352839727121 10.39558454088799,48.90738003669028 41.9335283972712,27.231951750751353 -37.157241273869715,33.45653031794291 -2.616797812147197,49.931476737728694 33.45653031794292,37.1572412738697 49.931476737728694,2.616797812147178 37.1572412738697,-33.45653031794292 2.616797812147181,-49.931476737728694 -33.456530317942914,-37.15724127386971 -49.931476737728694,-2.6167978121471913 15.450849718747367,-47.55282581475768 -22.69952498697734,-44.55032620941839 -47.552825814757675,-15.450849718747369 -44.55032620941839,22.699524986977348 -15.450849718747362,47.55282581475768 22.699524986977345,44.55032620941839 47.552825814757675,15.450849718747387 44.55032620941839,-22.699524986977345 10.39558454088799,48.90738003669028 41.9335283972712,27.231951750751353 48.907380036690284,-10.395584540887965 27.231951750751353,-41.933528397271196 -10.395584540887972,-48.90738003669028 -41.9335283972712,-27.231951750751353 -48.90738003669028,10.395584540887993 -27.231951750751332,41.93352839727121 -33.456530317942914,-37.15724127386971 -49.931476737728694,-2.6167978121471913 -37.157241273869715,33.45653031794291 -2.616797812147197,49.931476737728694 33.45653031794292,37.1572412738697 49.931476737728694,2.616797812147178 37.1572412738697,-33.45653031794292 2.616797812147181,-49.931476737728694 47.552825814757675,15.450849718747387 44.55032620941839,-22.699524986977345 15.450849718747367,-47.55282581475768 -22.69952498697734,-44.55032620941839 -47.552825814757675,-15.450849718747369 -44.55032620941839,22.699524986977348 -15.450849718747362,47.55282581475768 22.699524986977345,44.55032620941839 -48.90738003669028,10.395584540887993 -27.231951750751332,41.93352839727121 10.39558454088799,48.90738003669028 41.9335283972712,27.231951750751353 48.907380036690284,-10.395584540887965 27.231951750751353,-41.933528397271196 -10.395584540887972,-48.90738003669028 -41.9335283972712,-27.231951750751353 37.1572412738697,-33.45653031794292 2.616797812147181,-49.931476737728694 -33.456530317942914,-37.15724127386971 -49.931476737728694,-2.6167978121471913 -37.157241273869715,33.45653031794291 -2.616797812147197,49.931476737728694 33.45653031794292,37.1572412738697 49.931476737728694,2.616797812147178 -15.450849718747362,47.55282581475768 22.699524986977345,44.55032620941839 47.552825814757675,15.450849718747387 44.55032620941839,-22.699524986977345 15.450849718747367,-47.55282581475768 -22.69952498697734,-44.55032620941839 -47.552825814757675,-15.450849718747369 -44.55032620941839,22.699524986977348 -10.395584540887972,-48.90738003669028 -41.9335283972712,-27.231951750751353 -48.90738003669028,10.395584540887993 -27.231951750751332,41.93352839727121 10.39558454088799,48.90738003669028 41.9335283972712,27.231951750751353 48.907380036690284,-10.395584540887965 27.231951750751353,-41.933528397271196 33.45653031794292,37.1572412738697 49.931476737728694,2.616797812147178 37.1572412738697,-33.45653031794292 2.616797812147181,-49.931476737728694 -33.456530317942914,-37.15724127386971 -49.931476737728694,-2.6167978121471913 -37.157241273869715,33.45653031794291 -2.616797812147197,49.931476737728694 -47.552825814757675,-15.450849718747369 -44.55032620941839,22.699524986977348 -15.450849718747362,47.55282581475768 22.699524986977345,44.55032620941839 47.552825814757675,15.450849718747387 44.55032620941839,-22.699524986977345 15.450849718747367,-47.55282581475768 -22.69952498697734,-44.55032620941839 48.907380036690284,-10.395584540887965 27.231951750751353,-41.933528397271196 -10.395584540887972,-48.90738003669028 -41.9335283972712,-27.231951750751353 -48.90738003669028,10.395584540887993 -27.231951750751332,41.93352839727121 10.39558454088799,48.90738003669028 41.9335283972712,27.231951750751353 -37.157241273869715,33.45653031794291 -2.616797812147197,49.931476737728694 33.45653031794292,37.1572412738697 49.931476737728694,2.616797812147178 37.1572412738697,-33.45653031794292 2.616797812147181,-49.931476737728694 -33.456530317942914,-37.15724127386971 -49.931476737728694,-2.6167978121471913 15.450849718747367,-47.55282581475768 -22.69952498697734,-44.55032620941839 -47.552825814757675,-15.450849718747369 -44.55032620941839,22.699524986977348 -15.450849718747362,47.55282581475768 22.699524986977345,44.55032620941839 47.552825814757675,15.450849718747387 44.55032620941839,-22.699524986977345 10.39558454088799,48.90738003669028 41.9335283972712,27.231951750751353 48.907380036690284,-10.395584540887965 27.231951750751353,-41.933528397271196 -10.395584540887972,-48.90738003669028 -41.9335283972712,-27.231951750751353 -48.90738003669028,10.395584540887993 -27.231951750751332,41.93352839727121 -33.456530317942914,-37.15724127386971 -49.931476737728694,-2.6167978121471913 -37.157241273869715,33.45653031794291 -2.616797812147197,49.931476737728694 33.45653031794292,37.1572412738697 49.931476737728694,2.616797812147178 37.1572412738697,-33.45653031794292 2.616797812147181,-49.931476737728694 47.552825814757675,15.450849718747387 44.55032620941839,-22.699524986977345 15.450849718747367,-47.55282581475768 -22.69952498697734,-44.55032620941839 -47.552825814757675,-15.450849718747369 -44.55032620941839,22.699524986977348 -15.450849718747362,47.55282581475768 22.699524986977345,44.55032620941839 -48.90738003669028,10.395584540887993 -27.231951750751332,41.93352839727121 10.39558454088799,48.90738003669028 41.9335283972712,27.231951750751353 48.907380036690284,-10.395584540887965 27.231951750751353,-41.933528397271196 -10.395584540887972,-48.90738003669028 -41.9335283972712,-27.231951750751353 37.1572412738697,-33.45653031794292 2.616797812147181,-49.931476737728694 -33.456530317942914,-37.15724127386971 -49.931476737728694,-2.6167978121471913 -37.157241273869715,33.45653031794291 -2.616797812147197,49.931476737728694 33.45653031794292,37.1572412738697 49.931476737728694,2.616797812147178 -15.450849718747362,47.55282581475768 22.699524986977345,44.55032620941839 47.552825814757675,15.450849718747387 44.55032620941839,-22.699524986977345 15.450849718747367,-47.55282581475768 -22.69952498697734,-44.55032620941839 -47.552825814757675,-15.450849718747369 -44.55032620941839,22.699524986977348 -10.395584540887972,-48.90738003669028 -41.9335283972712,-27.231951750751353 -48.90738003669028,10.395584540887993 -27.231951750751332,41.93352839727121 10.39558454088799,48.90738003669028 41.9335283972712,27.231951750751353 48.907380036690284,-10.395584540887965 27.231951750751353,-41.933528397271196 33.45653031794292,37.1572412738697 49.931476737728694,2.616797812147178 37.1572412738697,-33.45653031794292 2.616797812147181,-49.931476737728694 -33.456530317942914,-37.15724127386971 -49.931476737728694,-2.6167978121471913 -37.157241273869715,33.45653031794291 -2.616797812147197,49.931476737728694 -47.552825814757675,-15.450849718747369 -44.55032620941839,22.699524986977348 -15.450849718747362,47.55282581475768 22.699524986977345,44.55032620941839 47.552825814757675,15.450849718747387 44.55032620941839,-22.699524986977345 15.450849718747367,-47.55282581475768 -22.69952498697734,-44.55032620941839 48.907380036690284,-10.395584540887965 27.231951750751353,-41.933528397271196 -10.395584540887972,-48.90738003669028 -41.9335283972712,-27.231951750751353 -48.90738003669028,10.395584540887993 -27.231951750751332,41.93352839727121 10.39558454088799,48.90738003669028 41.9335283972712,27.231951750751353 -37.157241273869715,33.45653031794291 -2.616797812147197,49.931476737728694 33.45653031794292,37.1572412738697 49.931476737728694,2.616797812147178 37.1572412738697,-33.45653031794292 2.616797812147181,-49.931476737728694 -33.456530317942914,-37.15724127386971 -49.931476737728694,-2.6167978121471913 15.450849718747367,-47.55282581475768 -22.69952498697734,-44.55032620941839 -47.552825814757675,-15.450849718747369 -44.55032620941839,22.699524986977348 -15.450849718747362,47.55282581475768 22.699524986977345,44.55032620941839 47.552825814757675,15.450849718747387 44.55032620941839,-22.699524986977345 10.39558454088799,48.90738003669028 41.9335283972712,27.231951750751353 48.907380036690284,-10.395584540887965 27.231951750751353,-41.933528397271196 -10.395584540887972,-48.90738003669028 -41.9335283972712,-27.231951750751353 -48.90738003669028,10.395584540887993 -27.231951750751332,41.93352839727121 -33.456530317942914,-37.15724127386971 -49.931476737728694,-2.6167978121471913 -37.157241273869715,33.45653031794291 -2.616797812147197,49.931476737728694 33.45653031794292,37.1572412738697 49.931476737728694,2.616797812147178 37.1572412738697,-33.45653031794292 2.616797812147181,-49.931476737728694 47.552825814757675,15.450849718747387 44.55032620941839,-22.699524986977345 15.450849718747367,-47.55282581475768 -22.69952498697734,-44.55032620941839 -47.552825814757675,-15.450849718747369 -44.55032620941839,22.699524986977348 -15.450849718747362,47.55282581475768 22.699524986977345,44.55032620941839 -48.90738003669028,10.395584540887993 -27.231951750751332,41.93352839727121 10.39558454088799,48.90738003669028 41.9335283972712,27.231951750751353 48.907380036690284,-10.395584540887965 27.231951750751353,-41.933528397271196 -10.395584540887972,-48.90738003669028 -41.9335283972712,-27.231951750751353 z" />
<path style="fill:none;stroke:#000000;stroke-width:1px" id="1" d="m 500,500 -3.3065463576978537e-15,-54.0 16.850820648257354,22.3617942813242 45.794597192447,-28.615640268593065 -10.034302587268407,26.140251941921647 48.534878500155024,23.672041926610163 -27.485561136534592,5.342651870543259 5.644537016453281,53.704182349886764 -19.09595408174997,-20.477903645336763 -42.552580694762966,33.245719667585576 7.246933262870591,-27.04592313609391 -50.74340152243906,-18.46908773958611 26.776533166965,-8.186407732236615 z" />
</svg>
